# xmcd
#
# Track frame offsets:
#	150
#	12174
#	28342
#	43027
#	54044
#	67679
#	80969
#	96290
#	109068
#	121750
#	132360
#	146330
#	156542
#	173309
#	189443
#	204275
#
# Disc length: 2901 seconds
#
# Revision: 1
# Processed by: cddbd v1.5.2PL0 Copyright (c) Steve Scherf et al.
# Submitted via: audiograbber 1.83.01
#
DISCID=cd0b5310
DTITLE=Billy Joe Shaver - The Complete Columbia Recording CD2
DYEAR=2013
DGENRE=Country
TTITLE0=Ride Me Down Easy
TTITLE1=Tell Me Virginia
TTITLE2=Low Down Freedom
TTITLE3=One Moving Part
TTITLE4=I Been to Georgia On a Fast Train
TTITLE5=Love You Till the Cows Come Home
TTITLE6=Sweet Mama
TTITLE7=Hardworkin' Man
TTITLE8=Manual Labor
TTITLE9=Hill Country Love Song
TTITLE10=You Just Can't Beat Jesus Christ
TTITLE11=The Devil Made Me Do It the First Time
TTITLE12=Fun While It Lasted
TTITLE13=Whiteman's Watermelon
TTITLE14=Street Walkin' Woman
TTITLE15=Good News Blues
EXTD=
EXTT0=
EXTT1=
EXTT2=
EXTT3=
EXTT4=
EXTT5=
EXTT6=
EXTT7=
EXTT8=
EXTT9=
EXTT10=
EXTT11=
EXTT12=
EXTT13=
EXTT14=
EXTT15=
PLAYORDER=
